<svg width="24" height="24" viewBox="0 0 24 24" fill="none" xmlns="http://www.w3.org/2000/svg">
<path d="M23.7237 19.5C23.7237 19.9878 23.5395 20.4024 23.1711 20.7439L20.4868 23.2317C20.1184 23.5732 19.6711 23.7439 19.1447 23.7439C18.6184 23.7439 18.1711 23.5732 17.8026 23.2317L12 17.8537L6.19737 23.2317C5.82895 23.5732 5.38158 23.7439 4.85526 23.7439C4.32895 23.7439 3.88158 23.5732 3.51316 23.2317L0.828945 20.7439C0.460524 20.4024 0.276314 19.9878 0.276314 19.5C0.276314 19.0122 0.460524 18.5976 0.828945 18.2561L6.63158 12.878L0.828945 7.5C0.460524 7.15853 0.276314 6.7439 0.276314 6.25609C0.276314 5.76829 0.460524 5.35365 0.828945 5.01219L3.51316 2.52439C3.88158 2.18292 4.32895 2.01219 4.85526 2.01219C5.38158 2.01219 5.82895 2.18292 6.19737 2.52439L12 7.90243L17.8026 2.52439C18.1711 2.18292 18.6184 2.01219 19.1447 2.01219C19.6711 2.01219 20.1184 2.18292 20.4868 2.52439L23.1711 5.01219C23.5395 5.35365 23.7237 5.76829 23.7237 6.25609C23.7237 6.7439 23.5395 7.15853 23.1711 7.5L17.3684 12.878L23.1711 18.2561C23.5395 18.5976 23.7237 19.0122 23.7237 19.5Z" fill="#F24E1E"/>
</svg>
